<svg version="1" xmlns="http://www.w3.org/2000/svg" width="1066.667" height="1066.667" viewBox="0 0 800.000000 800.000000"><path d="M400 50v25h-50v50h-50v100h-50v150H150v50H50v50H0v24.4c0 21.3.2 24.5 1.6 25 .9.3 12.1.6 25 .6H50v50h50v49h50v50h50v-49h50v-50h50v-50h-50v50H100v-50H50v-50h100v-50h100v-50h50V225h50V125h50V75h50v50h50v100h50v150h50v50h50v50l49.8-.2 49.7-.3.3-24.8.2-24.7H650v-50h-50V225h-50V125h-50V75h-50V25h-50v25z"/><path d="M350 400v75h50V325h-50v75zM450 400v75h50V325h-50v75zM750 500v25h-50v50H550v-50h-50v50h-50v49h250v-49l24.8-.2 24.7-.3.3-24.7.2-24.8 24.5-.2 24.5-.3.3-24.8.2-24.7H750v25zM400 649.5V674h50v-49h-50v24.5zM200 699.5V724h50v-49h-50v24.5zM350 699.5V724h50v-49h-50v24.5zM250 749.5V774h100v-49H250v24.5z"/></svg>